<?xml version="1.0" encoding="UTF-8"?>
<svg version="1.1" xmlns="http://www.w3.org/2000/svg" width="125" height="117">
<path d="M0 0 C41.25 0 82.5 0 125 0 C125 38.61 125 77.22 125 117 C83.75 117 42.5 117 0 117 C0 78.39 0 39.78 0 0 Z " fill="#fff" transform="translate(0,0)"/>
<path d="M0 0 C2.73828125 1.2421875 2.73828125 1.2421875 5.3125 2.875 C6.17488281 3.40867187 7.03726563 3.94234375 7.92578125 4.4921875 C10 6 10 6 11 8 C11.11668899 9.89740503 11.16970174 11.79885845 11.19287109 13.69970703 C11.20893402 14.89500031 11.22499695 16.09029358 11.24154663 17.32180786 C11.28597888 22.80568273 11.32752366 28.28942525 11.35009766 33.7734375 C11.36340168 36.66406144 11.39118545 39.5539735 11.43212891 42.44433594 C11.48166532 45.9415784 11.50624474 49.43817842 11.51332474 52.93575668 C11.52323711 54.90549234 11.55743524 56.87505797 11.59213257 58.84451294 C11.57055534 68.03709666 9.90604032 73.09395968 3.4375 79.5625 C-10.00855798 89.76054917 -10.00855798 89.76054917 -18 89 C-18.66 88.67 -19.32 88.34 -20 88 C-19.7525 89.0828125 -19.7525 89.0828125 -19.5 90.1875 C-20 93 -20 93 -21.5703125 94.515625 C-25.06129488 96.9314379 -26.95505872 98.1607602 -31.25 97.5 C-32.1575 97.005 -33.065 96.51 -34 96 C-34.70309799 95.61857346 -35.40619598 95.23714691 -36.13059998 94.84416199 C-38.92639116 92.08611568 -38.56897865 89.86334227 -38.66040039 85.9934082 C-38.6818663 85.28405624 -38.70333221 84.57470428 -38.72544861 83.84385681 C-38.78898532 81.4960408 -38.82110022 79.14929141 -38.84765625 76.80078125 C-38.86021391 75.99710806 -38.87277157 75.19343487 -38.88570976 74.36540794 C-38.951536 70.10921522 -38.99352343 65.85355909 -39.01586914 61.59692383 C-39.04334623 57.21103242 -39.14969897 52.8308537 -39.2749567 48.44682026 C-39.35725898 45.06562482 -39.38098625 41.68578266 -39.38915825 38.30367088 C-39.40305729 36.6883232 -39.43861562 35.07300398 -39.49675179 33.45864296 C-39.66798919 28.35271577 -39.60624709 23.88366702 -38 19 C-34.05190057 15.18845797 -30.02071088 13.23178523 -25 11 C-23.24600706 9.96364258 -21.50393792 8.90626301 -19.78515625 7.8125 C-18.2118785 6.8734217 -16.63768132 5.93588179 -15.0625 5 C-14.26521484 4.51144531 -13.46792969 4.02289062 -12.64648438 3.51953125 C-5.13848136 -0.9144755 -5.13848136 -0.9144755 0 0 Z " fill="#FDDE49" transform="translate(102,8)"/>
<path d="M0 0 C2.97 1.65 5.94 3.3 9 5 C9.13949056 13.84088626 9.24586727 22.68138933 9.31087303 31.523139 C9.34208503 35.62951171 9.38436844 39.73512737 9.45263672 43.84106445 C9.51819681 47.8092999 9.55378211 51.7768108 9.56926346 55.74554634 C9.58028478 57.25378375 9.60180686 58.76198491 9.63438034 60.26991081 C9.80006349 68.26336043 9.74142453 74.72982104 4.6703186 81.29981995 C1.47888376 84.5483103 -2.06350829 86.75212749 -6 89 C-7.30914469 89.78814809 -8.61769061 90.57729123 -9.92578125 91.3671875 C-11.34509344 92.20526377 -12.76567597 93.04119226 -14.1875 93.875 C-14.86474121 94.28105469 -15.54198242 94.68710938 -16.23974609 95.10546875 C-20.29120139 97.41888252 -23.21480363 98.73618406 -28 98 C-30.73828125 96.7578125 -30.73828125 96.7578125 -33.3125 95.125 C-34.17488281 94.59132813 -35.03726563 94.05765625 -35.92578125 93.5078125 C-38 92 -38 92 -39 90 C-39.4055999 85.57051969 -39.46381696 81.13282665 -39.5625 76.6875 C-39.62501953 75.45064453 -39.68753906 74.21378906 -39.75195312 72.93945312 C-39.910253 64.06026895 -39.910253 64.06026895 -37.29345703 61.01220703 C-33.8005722 58.71330626 -31.95255583 57.85345295 -27.75 58.5 C-26.8425 58.995 -25.935 59.49 -25 60 C-24.2884375 60.38800781 -23.576875 60.77601562 -22.84375 61.17578125 C-21 63 -21 63 -20.609375 66.13671875 C-20.65578125 67.30847656 -20.7021875 68.48023437 -20.75 69.6875 C-20.78609375 70.86699219 -20.8221875 72.04648438 -20.859375 73.26171875 C-20.90578125 74.16535156 -20.9521875 75.06898437 -21 76 C-17.37 74.02 -13.74 72.04 -10 70 C-10 55.81 -10 41.62 -10 27 C-14.95 29.97 -14.95 29.97 -20 33 C-24.43152538 31.89211866 -26.68811845 31.16134148 -30 28 C-30.26855469 25.33740234 -30.26855469 25.33740234 -30.171875 22.3359375 C-30.14706055 21.33868652 -30.12224609 20.34143555 -30.09667969 19.31396484 C-30.06477539 18.55035645 -30.03287109 17.78674805 -30 17 C-29.19780029 16.5560791 -28.39560059 16.1121582 -27.5690918 15.65478516 C-24.58853943 14.00460902 -21.60863125 12.35328132 -18.62915039 10.70117188 C-17.34034381 9.98684276 -16.05128338 9.27297143 -14.76196289 8.55957031 C-12.9070423 7.53310944 -11.05304567 6.50499696 -9.19921875 5.4765625 C-8.08377686 4.85861816 -6.96833496 4.24067383 -5.8190918 3.60400391 C-3.83603204 2.47568464 -1.89839352 1.26559568 0 0 Z " fill="#FDD93A" transform="translate(47,8)"/>
<path d="M0 0 C3.96 1.98 3.96 1.98 8 4 C9.06882465 29.00367461 9.11194673 53.97732319 9 79 C7.686298 78.3566152 6.37407102 77.71021785 5.0625 77.0625 C4.33160156 76.70285156 3.60070312 76.34320313 2.84765625 75.97265625 C1 75 1 75 0 74 C-0.09443335 71.69946165 -0.11742128 69.39597827 -0.11352539 67.09350586 C-0.11367142 66.37159561 -0.11381744 65.64968536 -0.1139679 64.90589905 C-0.11326869 62.50885053 -0.10547595 60.11187877 -0.09765625 57.71484375 C-0.0957921 56.05717511 -0.09436818 54.39950593 -0.09336853 52.74183655 C-0.08954312 48.37045786 -0.07971265 43.99911219 -0.06866455 39.62774658 C-0.05845092 35.17045539 -0.05387101 30.71315889 -0.04882812 26.25585938 C-0.0380904 17.50389107 -0.02101371 8.75194964 0 0 Z " fill="#FC7428" transform="translate(64,27)"/>
<path d="M0 0 C0.22297148 6.01375038 0.38601105 12.02508338 0.49438477 18.04199219 C0.53956701 20.08701491 0.60092981 22.13174812 0.67895508 24.17578125 C0.78852332 27.12051719 0.83924086 30.06140613 0.87890625 33.0078125 C0.92535782 33.9174173 0.97180939 34.82702209 1.01966858 35.76419067 C1.0217936 38.45396939 0.90856485 40.46428546 0 43 C-3.69079309 46.68124526 -7.89834118 48.96079263 -13 50 C-13.27280923 44.00468338 -13.47189723 38.01300356 -13.60424805 32.01293945 C-13.65942742 29.97453883 -13.73439718 27.93657098 -13.82983398 25.8996582 C-14.60436252 8.93872575 -14.60436252 8.93872575 -10.57275391 4.06689453 C-7.2068326 1.88577753 -4.09429031 0 0 0 Z " fill="#fff" transform="translate(95,30)"/>
<path d="M0 0 C0 17.49 0 34.98 0 53 C-3.13384992 51.74646003 -6.03145514 50.53924548 -9 49 C-9.19796271 42.82546709 -9.34302108 36.65278465 -9.43945312 30.47583008 C-9.47965263 28.37556788 -9.53422399 26.27552913 -9.60351562 24.17602539 C-9.70072891 21.15455069 -9.74595912 18.13603577 -9.78125 15.11328125 C-9.82254028 14.17664139 -9.86383057 13.24000153 -9.90637207 12.27497864 C-9.9081966 9.61619976 -9.83400892 7.52711432 -9 5 C-6.721989 2.80031591 -3.35300153 0 0 0 Z " fill="#F8772A" transform="translate(104,24)"/>
<path d="M0 0 C3.375 2 3.375 2 6 4 C3.27701732 5.81532179 0.52905798 7.58149238 -2.24389648 9.31933594 C-3.65156535 10.20783034 -5.05059718 11.11012476 -6.44165039 12.02441406 C-9.93867829 14.28329551 -13.13623316 16.16980549 -17.1328125 17.3828125 C-21.26280649 18.77485214 -24.77009123 20.08104997 -27 24 C-29.05965233 33.77570675 -28.49213044 44.08366386 -28 54 C-28.66 54 -29.32 54 -30 54 C-30.33 43.77 -30.66 33.54 -31 23 C-32.98 22.01 -34.96 21.02 -37 20 C-37 19.34 -37 18.68 -37 18 C-36.23856689 17.56131592 -35.47713379 17.12263184 -34.69262695 16.6706543 C-31.85030036 15.03282451 -29.00820408 13.39459648 -26.16625977 11.75610352 C-24.93946294 11.04891404 -23.71257625 10.34188043 -22.4855957 9.63500977 C-20.71541709 8.61516264 -18.94556931 7.59474343 -17.17578125 6.57421875 C-16.11270752 5.96151123 -15.04963379 5.34880371 -13.9543457 4.7175293 C-12.05040865 3.61066233 -10.16296488 2.47466953 -8.29760742 1.30395508 C-5.2446756 -0.42866727 -3.4665837 -0.49522624 0 0 Z " fill="#FCF2B6" transform="translate(102,8)"/>
<path d="M0 0 C0.33 0 0.66 0 1 0 C1.10393886 19.35821237 1.19225087 38.6685037 0 58 C-0.763125 57.690625 -1.52625 57.38125 -2.3125 57.0625 C-4.18789677 56.32106407 -6.08684652 55.63771783 -8 55 C-8.14878601 48.86200474 -8.25742416 42.72506849 -8.32958984 36.58569336 C-8.35968519 34.49924424 -8.40057226 32.41292083 -8.45263672 30.3269043 C-8.52577166 27.32048476 -8.5595289 24.31574331 -8.5859375 21.30859375 C-8.61690521 20.38227646 -8.64787292 19.45595917 -8.67977905 18.50157166 C-8.6822669 13.66854471 -8.32714572 10.81404366 -5.08837891 7.10571289 C-4.29580185 6.34031944 -4.29580185 6.34031944 -3.48721313 5.5594635 C-1.84649683 3.83903949 -0.96521997 2.1600187 0 0 Z " fill="#F77725" transform="translate(46,23)"/>
<path d="M0 0 C2.64 1.32 5.28 2.64 8 4 C7 8 7 8 5.36108398 9.29272461 C4.66313721 9.65889893 3.96519043 10.02507324 3.24609375 10.40234375 C2.47330078 10.81806641 1.70050781 11.23378906 0.90429688 11.66210938 C-0.31676758 12.29342773 -0.31676758 12.29342773 -1.5625 12.9375 C-8.58767308 16.65246405 -8.58767308 16.65246405 -15.49609375 20.578125 C-16.13603271 20.95227539 -16.77597168 21.32642578 -17.43530273 21.71191406 C-20.20376921 23.9909637 -20.45934647 26.55333377 -21 30 C-21.33 30 -21.66 30 -22 30 C-22 27.36 -22 24.72 -22 22 C-22.78375 21.690625 -23.5675 21.38125 -24.375 21.0625 C-27 20 -27 20 -29 19 C-27.67995317 15.0398595 -26.15937494 14.6897929 -22.5390625 12.71484375 C-21.42789062 12.10189453 -20.31671875 11.48894531 -19.171875 10.85742188 C-17.98976505 10.21711232 -16.80747136 9.57714189 -15.625 8.9375 C-14.4500353 8.29450623 -13.2755499 7.65063578 -12.1015625 7.00585938 C-9.94352198 5.8206855 -7.78309733 4.63983591 -5.61962891 3.46459961 C-2.89168367 1.98421643 -2.89168367 1.98421643 0 0 Z " fill="#FBF5BA" transform="translate(47,8)"/>
<path d="M0 0 C0.66 0.33 1.32 0.66 2 1 C1.34 1.99 0.68 2.98 0 4 C-0.66 4 -1.32 4 -2 4 C-2.04125 4.680625 -2.0825 5.36125 -2.125 6.0625 C-4.50380723 14.04849571 -11.36475588 17.78021212 -18.1953125 21.8125 C-21 23 -21 23 -23.1640625 22.7734375 C-26.41623743 21.40337232 -28.39084824 20.49055395 -31 18 C-31.52463302 14.28474164 -31.34701096 10.7271548 -31 7 C-30.67 7.66 -30.34 8.32 -30 9 C-28.35448038 9.71727778 -26.68577711 10.38325228 -25 11 C-24.34 11.33 -23.68 11.66 -23 12 C-22.375 14.0625 -22.375 14.0625 -22 16 C-21.67 15.27167969 -21.34 14.54335938 -21 13.79296875 C-18.28435784 10.00061691 -15.07627987 8.44130452 -11 6.3125 C-9.56208401 5.53853276 -8.12456848 4.76382097 -6.6875 3.98828125 C-6.05199219 3.65352783 -5.41648437 3.31877441 -4.76171875 2.97387695 C-3.12394268 2.06851543 -1.55706602 1.03804401 0 0 Z " fill="#FDE86D" transform="translate(48,18)"/>
<path d="M0 0 C3.2791333 0.68865573 5.57278539 1.65604743 8 4 C9.34920507 8.85278598 9.39783342 13.74264974 9.5 18.75 C9.55634087 20.12905608 9.6161991 21.50797324 9.6796875 22.88671875 C9.82114195 26.25804971 9.92647263 29.62661499 10 33 C5.6299721 31.80817421 2.70838738 30.72503486 0 27 C-0.45410156 24.06738281 -0.45410156 24.06738281 -0.390625 20.703125 C-0.37773438 19.49785156 -0.36484375 18.29257813 -0.3515625 17.05078125 C-0.31804688 15.79652344 -0.28453125 14.54226562 -0.25 13.25 C-0.23195313 11.98027344 -0.21390625 10.71054688 -0.1953125 9.40234375 C-0.14817153 6.26746923 -0.08237664 3.1341144 0 0 Z " fill="#FB7029" transform="translate(8,71)"/>
<path d="M0 0 C0.33 0 0.66 0 1 0 C1 14.19 1 28.38 1 43 C4.96 40.69 8.92 38.38 13 36 C18.02137798 37.0042756 18.86243419 37.39760962 22 41 C21.45996338 41.32274902 20.91992676 41.64549805 20.36352539 41.97802734 C17.92664943 43.43841998 15.49455292 44.90659069 13.0625 46.375 C11.78729492 47.13683594 11.78729492 47.13683594 10.48632812 47.9140625 C9.27299805 48.64882812 9.27299805 48.64882812 8.03515625 49.3984375 C7.2862915 49.84880371 6.53742676 50.29916992 5.76586914 50.76318359 C3.85544089 51.89241274 3.85544089 51.89241274 3 54 C2.01 54 1.02 54 0 54 C0 36.18 0 18.36 0 0 Z " fill="#F9C749" transform="translate(81,37)"/>
<path d="M0 0 C0.33 0 0.66 0 1 0 C3.06205447 19.83476773 3.06205447 19.83476773 -0.17919922 24.81005859 C-3.59344481 27.89185573 -7.77451165 29.35889348 -12 31 C-14.00763384 32.32181093 -16.00936955 33.65271823 -18 35 C-18.66 35 -19.32 35 -20 35 C-20.56833184 31.84260089 -20.75101445 29.13689029 -20 26 C-16.56457475 22.36249091 -12.45132903 20.47447295 -7.75 18.9375 C-5 19 -5 19 0 22 C0 14.74 0 7.48 0 0 Z " fill="#FDB546" transform="translate(46,59)"/>
<path d="M0 0 C2.75 1.375 2.75 1.375 5.75 3.375 C5 5.25 5 5.25 3.75 7.375 C3.07710937 7.60316406 2.40421875 7.83132812 1.7109375 8.06640625 C1.06382813 8.49824219 0.41671875 8.93007812 -0.25 9.375 C-0.88248748 12.68458318 -0.88248748 12.68458318 -0.875 16.4375 C-0.93610843 18.75256955 -1.04585305 21.06813952 -1.25 23.375 C-1.91 23.705 -2.57 24.035 -3.25 24.375 C-3.25 19.095 -3.25 13.815 -3.25 8.375 C-5.725 7.385 -5.725 7.385 -8.25 6.375 C-8.91 6.045 -9.57 5.715 -10.25 5.375 C-10.25 4.715 -10.25 4.055 -10.25 3.375 C-4.1212522 -0.7925485 -4.1212522 -0.7925485 0 0 Z " fill="#FCE279" transform="translate(19.25,66.625)"/>
<path d="M0 0 C0.33 0.66 0.66 1.32 1 2 C2.64551962 2.71727778 4.31422289 3.38325228 6 4 C6.66 4.33 7.32 4.66 8 5 C8 8.3 8 11.6 8 15 C8.66 15.33 9.32 15.66 10 16 C5.86296368 15.36353287 3.0247013 13.88721488 0 11 C-0.52463302 7.28474164 -0.34701096 3.7271548 0 0 Z " fill="#F99224" transform="translate(17,25)"/>
</svg>
